<?xml version="1.0" encoding="utf-8"?>
<!-- Generator: Adobe Illustrator 16.0.0, SVG Export Plug-In . SVG Version: 6.00 Build 0)  -->
<!DOCTYPE svg PUBLIC "-//W3C//DTD SVG 1.1//EN" "http://www.w3.org/Graphics/SVG/1.1/DTD/svg11.dtd">
<svg version="1.1" id="Layer_1" xmlns="http://www.w3.org/2000/svg" xmlns:xlink="http://www.w3.org/1999/xlink" x="0px" y="0px"
	 width="119.174px" height="113.739px" viewBox="0 0 119.174 113.739" enable-background="new 0 0 119.174 113.739"
	 xml:space="preserve">
<g>
	
		<ellipse fill="#FFFFFF" stroke="#000000" stroke-width="5" stroke-miterlimit="10" cx="94.944" cy="43.878" rx="18.605" ry="17.572"/>
	<path fill="#F3AA99" d="M19.114,85.602c0,0-8.958-11.429-11.025-21.563c-2.067-10.135-2.757-17.026,2.756-25.984
		c5.513-8.958,19.294-15.16,19.294-15.16V9.114l10.856,8.271l3.614,2.754c0,0,17.227-4.134,23.429-1.378
		c6.202,2.756,21.532-4.824,21.532-4.824v12.403c0,0,9.93,6.141,12.922,17.572c2.991,11.431,8.438,29.833-1.303,41.689
		c-5.151,6.27-9.336,7.39-9.336,7.39s4.779,9.148-2.283,11.215c-7.061,2.067-12.683-8.66-12.683-8.66l-0.714,2.8
		c0,0-3.222,10.882-9.512,9.995c-13.062-1.843-7.892-15.129-10.157-15.639c-0.279-0.063-0.647-0.085-1.077-0.074
		c-3.008,0.07-9.057,1.701-9.057,1.701l-7.439-2.231l-1.507-0.452c0,0,0.983,9.115-7.975,8.426S19.114,85.602,19.114,85.602z"/>
	
		<ellipse fill="#FFFFFF" stroke="#000000" stroke-width="5" stroke-miterlimit="10" cx="51.876" cy="43.878" rx="18.261" ry="17.572"/>
	<ellipse cx="48.4" cy="42.155" rx="4.448" ry="4.135"/>
	<ellipse cx="105.794" cy="33.51" rx="3.139" ry="3.445"/>
	<path fill="#F38E78" d="M16.492,33.247c0.092,1.438-5.936,14.287-5.176,23.191c0.343,4.021,5.53,19.945,9.292,23.708
		c3.762,3.762,4.362,12.46,7.958,14.641c11.908,7.218,1.457-14.729,8.354-9.608c3.224,2.394,7.483,1.922,16.775-0.279
		c8.935-2.117,5.263,13.564,16.441,11.253c21.234-4.39,6.202-22.644,6.202-22.644l26.316,3.461c9.218-1.9-5.641,14.677-5.641,14.677
		s-1.309,7.279-1.432,8.761c-0.139,1.669-5.247,3.436-6.824,4c-3.442,1.232-6.285-3.155-8.633-5.957
		c-0.28-0.335-4.954,0.314-4.954,0.314s-0.743,11.067-10.451,9.406c-9.708-1.662-4.269-15.915-9.406-15.363
		c-0.426,0.046,1.296,1.743,0.893,1.777c-2.354,0.199,3.12,15.471-10.612,13.809c-10.828-1.311-7.483-11.633-7.526-14.861
		c-0.009-0.667-0.163-1.031-0.616-0.951c-0.368,0.065-0.742,0.148-1.125,0.252c-0.452,3.631-5.444,7.725-8.152,7.315
		c-3.339-0.505-5.852-0.212-7.594-3.106c-2.172-3.608-5.273-15.683-7.415-20.491c-2.141-4.807-5.798-17.06-5.823-22.832
		C7.29,40.779,16.397,31.782,16.492,33.247z"/>
	<path fill="none" stroke="#000000" stroke-width="7" stroke-miterlimit="10" d="M37.424,91.646c0,0,0.912,7.099-7.975,8.426
		c-13.64,2.037-10.336-14.47-10.336-14.47S10.156,74.173,8.088,64.039c-2.067-10.135-2.757-17.026,2.756-25.984
		c5.513-8.958,19.294-15.16,19.294-15.16V9.114l10.856,8.271l3.614,2.754c0,0,17.227-4.134,23.428-1.378
		c6.202,2.756,21.533-4.824,21.533-4.824v12.403c0,0,9.93,6.141,12.922,17.572c2.991,11.431,8.439,29.833-1.303,41.689
		c-5.152,6.27-4.175,6.044-4.175,6.044s2.508,10.149-7.444,12.561c-10.926,2.648-12.684-8.66-12.684-8.66l-0.548-0.022
		c0,0-2.904,12.856-9.679,12.817c-13.19-0.078-10.157-15.639-10.157-15.639"/>
	<path fill="none" stroke="#000000" stroke-width="7" stroke-miterlimit="10" d="M41.392,77.247"/>
	<path fill="none" stroke="#000000" stroke-width="7" stroke-miterlimit="10" d="M50.337,79.931"/>
	<path fill="#D48EBC" stroke="#000000" stroke-width="5" stroke-miterlimit="10" d="M71.186,61.252
		c0.096-4.622,0-17.745,21.758-17.745c21.757,0,21.452,11.08,21.757,17.745c0.45,9.789-9.735,15.717-21.752,15.717
		C80.933,76.969,70.981,71.05,71.186,61.252z"/>
	
		<ellipse transform="matrix(-0.9503 0.3113 -0.3113 -0.9503 218.4993 82.6247)" fill="#9F3C83" stroke="#000000" stroke-width="5" stroke-miterlimit="10" cx="102.655" cy="58.753" rx="5.749" ry="9.371"/>
	
		<ellipse transform="matrix(-0.9503 0.3113 -0.3113 -0.9503 187.4859 87.5757)" fill="#9F3C83" stroke="#000000" stroke-width="5" stroke-miterlimit="10" cx="86.753" cy="58.753" rx="5.749" ry="9.371"/>
	<path fill="none" stroke="#000000" stroke-width="5" stroke-miterlimit="10" d="M37.425,91.646
		c0.277,14.517,2.251,15.259,2.449,15.375c3.031,1.776,6.584,2.954,10.242,1.477c3.658-1.477,6.354-11.588,6.924-15.874"/>
	<path fill="#F38E78" stroke="#000000" stroke-width="5" stroke-miterlimit="10" d="M53.12,94.663"/>
	<path fill="#F38E78" stroke="#000000" stroke-width="5" stroke-miterlimit="10" d="M37.94,92.804"/>
</g>
</svg>
