<?xml version="1.0" encoding="utf-8"?>
<!-- Generator: Adobe Illustrator 16.0.0, SVG Export Plug-In . SVG Version: 6.00 Build 0)  -->
<!DOCTYPE svg PUBLIC "-//W3C//DTD SVG 1.1//EN" "http://www.w3.org/Graphics/SVG/1.1/DTD/svg11.dtd">
<svg version="1.1" id="Layer_1" xmlns="http://www.w3.org/2000/svg" xmlns:xlink="http://www.w3.org/1999/xlink" x="0px" y="0px"
	 width="612px" height="792px" viewBox="0 0 612 792" enable-background="new 0 0 612 792" xml:space="preserve">
<g>
	
		<ellipse fill="#FFFFFF" stroke="#000000" stroke-width="5" stroke-miterlimit="10" cx="147.503" cy="64.553" rx="29.67" ry="28.022"/>
	<path fill="#F3AA99" d="M26.575,131.092c0,0-14.286-18.225-17.583-34.387s-4.396-27.151,4.396-41.437s30.77-24.176,30.77-24.176
		V9.114L61.47,22.305l5.764,4.392c0,0,27.472-6.593,37.363-2.198s34.338-7.692,34.338-7.692v19.78c0,0,15.836,9.793,20.607,28.022
		c4.77,18.229,13.457,47.577-2.078,66.483c-8.215,9.999-14.889,11.785-14.889,11.785s7.621,14.589-3.641,17.885
		c-11.261,3.296-20.227-13.811-20.227-13.811l-1.139,4.465c0,0-5.139,17.355-15.17,15.939c-20.83-2.939-12.586-24.126-16.197-24.939
		c-0.445-0.1-1.032-0.135-1.717-0.118c-4.798,0.112-14.443,2.713-14.443,2.713l-11.863-3.559l-2.403-0.721
		c0,0,1.568,14.536-12.717,13.438S26.575,131.092,26.575,131.092z"/>
	
		<ellipse fill="#FFFFFF" stroke="#000000" stroke-width="5" stroke-miterlimit="10" cx="78.822" cy="64.553" rx="29.121" ry="28.022"/>
	<ellipse cx="73.277" cy="61.806" rx="7.093" ry="6.594"/>
	<ellipse cx="164.806" cy="48.02" rx="5.006" ry="5.495"/>
	<path fill="#F38E78" d="M22.393,47.599c0.147,2.292-9.465,22.784-8.253,36.983c0.547,6.413,8.819,31.807,14.818,37.807
		s6.956,19.871,12.692,23.348c18.989,11.511,2.322-23.489,13.322-15.322c5.142,3.817,11.934,3.065,26.751-0.445
		c14.249-3.375,8.393,21.631,26.22,17.946c33.863-7,9.89-36.11,9.89-36.11l41.967,5.52c14.701-3.031-8.995,23.406-8.995,23.406
		s-2.087,11.608-2.284,13.971c-0.222,2.663-8.367,5.479-10.882,6.379c-5.489,1.964-10.022-5.031-13.767-9.5
		c-0.447-0.534-7.9,0.5-7.9,0.5s-1.186,17.649-16.667,15s-6.807-25.38-15-24.5c-0.68,0.073,2.067,2.78,1.424,2.834
		c-3.754,0.317,4.976,24.672-16.924,22.021c-17.268-2.09-11.933-18.551-12.002-23.699c-0.014-1.063-0.259-1.644-0.981-1.516
		c-0.587,0.104-1.183,0.237-1.795,0.403c-0.721,5.791-8.682,12.319-13,11.667c-5.325-0.805-9.333-0.338-12.11-4.953
		c-3.464-5.755-8.41-25.011-11.825-32.677S7.845,89.455,7.806,80.25C7.718,59.612,22.243,45.264,22.393,47.599z"/>
	<path fill="none" stroke="#000000" stroke-width="7" stroke-miterlimit="10" d="M55.775,140.731c0,0,1.454,11.322-12.717,13.438
		c-21.752,3.248-16.483-23.077-16.483-23.077S12.289,112.867,8.992,96.705s-4.396-27.151,4.396-41.437s30.77-24.176,30.77-24.176
		V9.114L61.47,22.305l5.764,4.392c0,0,27.473-6.593,37.362-2.198c9.891,4.396,34.339-7.692,34.339-7.692v19.78
		c0,0,15.836,9.793,20.606,28.022s13.458,47.577-2.077,66.483c-8.216,9.999-6.658,9.639-6.658,9.639s4,16.185-11.871,20.031
		c-17.424,4.223-20.228-13.811-20.228-13.811l-0.874-0.035c0,0-4.631,20.503-15.435,20.439
		c-21.035-0.124-16.197-24.939-16.197-24.939"/>
	<path fill="none" stroke="#000000" stroke-width="7" stroke-miterlimit="10" d="M62.102,117.767"/>
	<path fill="none" stroke="#000000" stroke-width="7" stroke-miterlimit="10" d="M76.368,122.047"/>
	<path fill="#D48EBC" stroke="#000000" stroke-width="5" stroke-miterlimit="10" d="M109.615,92.261
		c0.154-7.371,0-28.298,34.698-28.298c34.697,0,34.21,17.668,34.697,28.298c0.718,15.611-15.525,25.064-34.688,25.064
		C125.159,117.325,109.29,107.886,109.615,92.261z"/>
	<path fill="#9F3C83" stroke="#000000" stroke-width="5" stroke-miterlimit="10" d="M151.086,91.13
		c-2.569-7.844-0.751-15.481,4.062-17.057c4.812-1.576,10.797,3.504,13.364,11.347c2.572,7.844,0.754,15.481-4.059,17.058
		C159.641,104.055,153.657,98.973,151.086,91.13z"/>
	<path fill="#9F3C83" stroke="#000000" stroke-width="5" stroke-miterlimit="10" d="M125.727,91.13
		c-2.569-7.844-0.751-15.481,4.062-17.057c4.812-1.576,10.797,3.504,13.364,11.347c2.572,7.844,0.754,15.481-4.059,17.058
		C134.282,104.055,128.297,98.973,125.727,91.13z"/>
	<path fill="none" stroke="#000000" stroke-width="5" stroke-miterlimit="10" d="M55.775,140.731
		c0.441,23.151,3.59,24.334,3.905,24.519c4.833,2.833,10.5,4.711,16.333,2.355s10.132-18.48,11.042-25.314"/>
	<path fill="#F38E78" stroke="#000000" stroke-width="5" stroke-miterlimit="10" d="M80.806,145.541"/>
	<path fill="#F38E78" stroke="#000000" stroke-width="5" stroke-miterlimit="10" d="M56.598,142.578"/>
</g>
</svg>
